<?xml version="1.0" standalone="no"?>
<!DOCTYPE svg PUBLIC "-//W3C//DTD SVG 20010904//EN"
 "http://www.w3.org/TR/2001/REC-SVG-20010904/DTD/svg10.dtd">
<svg version="1.0" xmlns="http://www.w3.org/2000/svg"
 width="1574.000000pt" height="1686.000000pt" viewBox="0 0 1574.000000 1686.000000"
 preserveAspectRatio="xMidYMid meet">

<g transform="translate(0.000000,1686.000000) scale(0.100000,-0.100000)"
fill="#000000" stroke="none">
<path d="M8410 11242 c-91 -31 -134 -57 -222 -139 -46 -43 -600 -525 -1231
-1072 -630 -546 -1146 -996 -1145 -1000 1 -3 -12 -33 -28 -66 -26 -55 -29 -69
-29 -165 0 -98 2 -109 32 -171 38 -76 124 -163 197 -199 111 -53 255 -65 367
-30 34 10 65 17 68 15 7 -4 70 47 250 204 78 68 145 120 148 117 4 -3 -3 -495
-15 -1093 -12 -598 -18 -1090 -14 -1093 4 -3 22 -35 41 -73 80 -165 259 -260
434 -230 135 23 245 105 314 236 l38 72 5 277 c3 152 8 279 12 283 3 4 350 -1
770 -9 419 -9 793 -16 831 -16 l67 0 -7 -291 c-4 -183 -3 -293 3 -297 6 -4 18
-27 27 -52 39 -101 130 -190 236 -230 200 -76 426 14 518 207 16 32 32 61 36
64 5 3 18 503 29 1110 12 607 23 1106 25 1108 4 5 97 -78 283 -253 85 -80 161
-146 170 -146 8 0 44 -10 80 -21 222 -70 469 31 563 229 29 61 32 75 32 167 0
83 -4 111 -25 164 l-25 64 -1199 1126 c-659 619 -1215 1137 -1234 1150 -95 65
-289 90 -402 53z m851 -1683 c393 -363 734 -681 759 -706 l45 -45 -367 7 -368
8 -1 -174 c-1 -96 -4 -295 -8 -444 l-6 -270 -105 2 c-58 2 -393 8 -745 13
-352 6 -682 13 -733 16 l-94 6 6 131 c3 73 8 273 12 445 l6 312 -229 1 c-125
1 -281 4 -347 8 l-118 6 783 672 c431 369 787 672 790 672 4 1 328 -296 720
-660z"/>
</g>
</svg>
